<svg t="1693996188816" class="icon" viewBox="0 0 1024 1024" version="1.1" xmlns="http://www.w3.org/2000/svg" p-id="1497"
     width="200" height="200">
    <path d="M855.04 241.105455h-389.12c-0.930909-2.792727-1.396364-5.12-3.258182-7.912728l-40.494545-60.509091c-15.36-22.807273-40.96-36.770909-68.421818-36.770909H169.890909c-46.08 0-83.316364 37.236364-83.316364 83.316364v585.076364c0 45.614545 37.236364 82.385455 82.385455 82.385454h686.08c45.614545 0 82.385455-36.770909 82.385455-82.385454V323.956364c0-45.614545-36.770909-82.385455-82.385455-82.385455zM148.945455 219.694545c0-11.170909 9.309091-20.48 20.48-20.48h183.854545c6.516364 0 12.567273 3.258182 16.290909 8.843637l22.341818 33.047273H149.410909v-21.41091z m725.643636 585.076364c0 10.705455-8.843636 19.549091-19.549091 19.549091H168.96c-10.705455 0-19.549091-8.843636-19.549091-19.549091V303.941818h706.094546c10.705455 0 19.549091 8.843636 19.54909 19.549091v481.28z"
          fill="#040000" p-id="1498"></path>
    <path d="M744.727273 673.047273H281.134545c-17.221818 0-31.185455 13.963636-31.185454 31.650909s13.963636 31.650909 31.185454 31.650909h464.058182a31.650909 31.650909 0 0 0 0-63.301818z"
          fill="#040000" p-id="1499"></path>
</svg>