<svg t="1693996352316" class="icon" viewBox="0 0 1024 1024" version="1.1" xmlns="http://www.w3.org/2000/svg" p-id="2319"
     width="200" height="200">
    <path d="M741.469091 911.36H241.105455c-53.061818 0-95.883636-42.821818-95.883637-95.883636V255.534545c0-53.061818 42.821818-95.883636 95.883637-95.883636h347.694545c17.221818 0 31.185455 13.963636 31.185455 31.650909s-13.963636 31.650909-31.185455 31.650909H241.105455c-18.152727 0-33.047273 14.894545-33.047273 33.047273v559.941818c0 18.152727 14.894545 33.047273 33.047273 33.047273h500.363636c18.152727 0 33.047273-14.894545 33.047273-33.047273V374.225455c0-17.221818 13.963636-31.650909 31.185454-31.65091s31.650909 13.963636 31.650909 31.65091v441.716363c0 53.061818-42.821818 95.883636-95.883636 95.883637z"
          fill="#040000" p-id="2320"></path>
    <path d="M586.472727 436.130909a31.464727 31.464727 0 0 1-22.341818-53.527273l260.654546-260.654545c12.101818-12.101818 32.116364-12.101818 44.218181 0s12.101818 32.116364 0 44.218182l-260.654545 260.654545c-6.050909 6.050909-13.963636 9.309091-22.341818 9.309091zM505.018182 430.08H277.410909c-17.221818 0-31.185455-13.963636-31.185454-31.650909s13.963636-31.650909 31.185454-31.650909h227.607273c17.221818 0 31.185455 13.963636 31.185454 31.650909s-13.963636 31.650909-31.185454 31.650909zM699.112727 623.243636H277.410909c-17.221818 0-31.185455-13.963636-31.185454-31.650909s13.963636-31.650909 31.185454-31.650909h421.701818a31.650909 31.650909 0 0 1 0 63.301818z"
          fill="#040000" p-id="2321"></path>
</svg>