<svg t="1693996288126" class="icon" viewBox="0 0 1024 1024" version="1.1" xmlns="http://www.w3.org/2000/svg" p-id="1871"
     width="200" height="200">
    <path d="M551.563636 700.043636c-60.974545 0-118.225455-23.738182-161.047272-66.56A226.304 226.304 0 0 1 325.818182 503.621818a31.464727 31.464727 0 1 1 62.370909-8.378182c5.12 35.84 20.945455 68.421818 47.010909 94.021819a165.748364 165.748364 0 0 0 233.658182 0l156.392727-156.392728a165.748364 165.748364 0 0 0 0-233.658182c-62.370909-62.370909-171.287273-62.370909-233.658182 0l-93.090909 93.09091c-12.101818 12.101818-32.116364 12.101818-44.218182 0s-12.101818-32.116364 0-44.218182l93.090909-93.090909c42.821818-43.287273 100.538182-66.56 161.047273-66.56a227.141818 227.141818 0 0 1 227.607273 227.607272c0 60.974545-23.738182 118.225455-66.56 161.047273l-156.392727 156.392727c-42.821818 43.287273-100.538182 66.56-161.047273 66.56z"
          fill="#040000" p-id="1872"></path>
    <path d="M315.578182 936.029091c-58.181818 0-116.829091-22.341818-161.047273-66.56a228.398545 228.398545 0 0 1 0-322.56l156.392727-156.392727c42.821818-43.287273 100.538182-66.56 161.047273-66.56s118.225455 23.738182 161.047273 66.56c35.374545 35.374545 57.716364 80.058182 64.698182 129.861818a31.464727 31.464727 0 1 1-62.370909 8.378182c-5.12-35.84-20.945455-68.421818-47.01091-94.021819a165.748364 165.748364 0 0 0-233.658181 0L198.283636 591.127273a165.748364 165.748364 0 0 0 0 233.658182 165.748364 165.748364 0 0 0 233.658182 0l93.090909-93.09091c12.101818-12.101818 32.116364-12.101818 44.218182 0s12.101818 32.116364 0 44.218182l-93.090909 93.090909c-44.218182 44.218182-102.865455 66.56-161.047273 66.56z"
          fill="#040000" p-id="1873"></path>
</svg>